# xmcd
#
# Track frame offsets:
#	150
#	18808
#	57475
#	80385
#	105238
#	142021
#	176442
#
# Disc length: 2661 seconds
#
# Revision: 0
# Processed by: cddbd v1.5.1PL0 Copyright (c) Steve Scherf et al.
# Submitted via: EasyCDDAExtractor 7.1.2.1
#
DISCID=4e0a6307
DTITLE=Alastair Green Band - Live In L.A.
DYEAR=2003
DGENRE=Blues
TTITLE0=Ramblin' Mind
TTITLE1=Begining To Wonder/Cissy Strut
TTITLE2=Say What You Want
TTITLE3=One Way Out
TTITLE4=Afro Blues
TTITLE5=Love To Strong
TTITLE6=3 Bullets
EXTD=
EXTT0=
EXTT1=
EXTT2=
EXTT3=
EXTT4=
EXTT5=
EXTT6=
PLAYORDER=
